<svg width="826" height="826" viewBox="0 0 826 826" fill="none" xmlns="http://www.w3.org/2000/svg">
<g clip-path="url(#clip0_1_2)">
<g filter="url(#filter0_d_1_2)">
<rect width="824" height="824" rx="184" fill="white"/>
<rect width="824" height="824" rx="184" fill="url(#paint0_linear_1_2)"/>
</g>
<g filter="url(#filter1_dii_1_2)">
<path d="M698.905 574.598V245.222L413 409.91L698.905 574.598Z" fill="#DD5A35"/>
<path d="M698.905 245.222L413 80.5344L413 409.91L698.905 245.222Z" fill="#F2BA44"/>
<path d="M413 80.5344L127.095 245.222L413 409.91L413 80.5344Z" fill="#50AF95"/>
<path d="M127.095 245.222V574.598L413 409.91L127.095 245.222Z" fill="#3D8AC1"/>
<path d="M127.095 574.598L413 739.286L413 409.91L127.095 574.598Z" fill="#9D4A95"/>
<path d="M413 739.286L698.905 574.598L413 409.91L413 739.286Z" fill="#C93271"/>
<g filter="url(#filter2_i_1_2)">
<path d="M620.323 291.201V528.619L413 647.328L205.677 528.619V291.201L413 172.492L620.323 291.201Z" fill="white" fill-opacity="0.25"/>
</g>
<g filter="url(#filter3_di_1_2)">
<path d="M531.709 342.196V477.624L413 545.339L294.291 477.624V342.196L413 274.482L531.709 342.196Z" fill="#394597"/>
</g>
<path d="M404.64 424.326L404.64 703.534H421.36V424.326H404.64Z" fill="#394597"/>
<path d="M160.701 563.93L404.64 424.326L396.169 409.91L152.175 549.546L160.701 563.93Z" fill="#394597"/>
<path d="M404.64 395.494L160.701 255.89L152.175 270.275L396.169 409.91L404.64 395.494Z" fill="#394597"/>
<path d="M421.36 395.494V116.286H404.64L404.64 395.494H421.36Z" fill="#394597"/>
<path d="M429.831 409.91L673.825 270.275L665.299 255.89L421.36 395.494L429.831 409.91Z" fill="#394597"/>
<path d="M421.36 424.326L665.299 563.93L673.825 549.546L429.831 409.91L421.36 424.326Z" fill="#394597"/>
<path d="M451.455 92.2381C451.455 113.476 434.238 130.693 413 130.693C391.762 130.693 374.545 113.476 374.545 92.2381C374.545 71 391.762 53.7831 413 53.7831C434.238 53.7831 451.455 71 451.455 92.2381Z" fill="white"/>
<path fill-rule="evenodd" clip-rule="evenodd" d="M413 113.974C425.004 113.974 434.735 104.242 434.735 92.2381C434.735 80.2339 425.004 70.5026 413 70.5026C400.996 70.5026 391.265 80.2339 391.265 92.2381C391.265 104.242 400.996 113.974 413 113.974ZM413 130.693C434.238 130.693 451.455 113.476 451.455 92.2381C451.455 71 434.238 53.7831 413 53.7831C391.762 53.7831 374.545 71 374.545 92.2381C374.545 113.476 391.762 130.693 413 130.693Z" fill="#394597"/>
<path d="M729 570.418C729 591.656 711.783 608.873 690.545 608.873C669.307 608.873 652.09 591.656 652.09 570.418C652.09 549.18 669.307 531.963 690.545 531.963C711.783 531.963 729 549.18 729 570.418Z" fill="white"/>
<path fill-rule="evenodd" clip-rule="evenodd" d="M690.545 592.153C702.549 592.153 712.28 582.422 712.28 570.418C712.28 558.414 702.549 548.683 690.545 548.683C678.541 548.683 668.81 558.414 668.81 570.418C668.81 582.422 678.541 592.153 690.545 592.153ZM690.545 608.873C711.783 608.873 729 591.656 729 570.418C729 549.18 711.783 531.963 690.545 531.963C669.307 531.963 652.09 549.18 652.09 570.418C652.09 591.656 669.307 608.873 690.545 608.873Z" fill="#394597"/>
<path d="M729 249.402C729 270.64 711.783 287.857 690.545 287.857C669.307 287.857 652.09 270.64 652.09 249.402C652.09 228.164 669.307 210.947 690.545 210.947C711.783 210.947 729 228.164 729 249.402Z" fill="white"/>
<path fill-rule="evenodd" clip-rule="evenodd" d="M690.545 271.138C702.549 271.138 712.28 261.406 712.28 249.402C712.28 237.398 702.549 227.667 690.545 227.667C678.541 227.667 668.81 237.398 668.81 249.402C668.81 261.406 678.541 271.138 690.545 271.138ZM690.545 287.857C711.783 287.857 729 270.64 729 249.402C729 228.164 711.783 210.947 690.545 210.947C669.307 210.947 652.09 228.164 652.09 249.402C652.09 270.64 669.307 287.857 690.545 287.857Z" fill="#394597"/>
<path d="M173.91 249.402C173.91 270.64 156.693 287.857 135.455 287.857C114.217 287.857 97 270.64 97 249.402C97 228.164 114.217 210.947 135.455 210.947C156.693 210.947 173.91 228.164 173.91 249.402Z" fill="white"/>
<path fill-rule="evenodd" clip-rule="evenodd" d="M135.455 271.138C147.459 271.138 157.19 261.406 157.19 249.402C157.19 237.398 147.459 227.667 135.455 227.667C123.451 227.667 113.72 237.398 113.72 249.402C113.72 261.406 123.451 271.138 135.455 271.138ZM135.455 287.857C156.693 287.857 173.91 270.64 173.91 249.402C173.91 228.164 156.693 210.947 135.455 210.947C114.217 210.947 97 228.164 97 249.402C97 270.64 114.217 287.857 135.455 287.857Z" fill="#394597"/>
<path d="M173.91 570.418C173.91 591.656 156.693 608.873 135.455 608.873C114.217 608.873 97 591.656 97 570.418C97 549.18 114.217 531.963 135.455 531.963C156.693 531.963 173.91 549.18 173.91 570.418Z" fill="white"/>
<path fill-rule="evenodd" clip-rule="evenodd" d="M135.455 592.153C147.459 592.153 157.19 582.422 157.19 570.418C157.19 558.414 147.459 548.683 135.455 548.683C123.451 548.683 113.72 558.414 113.72 570.418C113.72 582.422 123.451 592.153 135.455 592.153ZM135.455 608.873C156.693 608.873 173.91 591.656 173.91 570.418C173.91 549.18 156.693 531.963 135.455 531.963C114.217 531.963 97 549.18 97 570.418C97 591.656 114.217 608.873 135.455 608.873Z" fill="#394597"/>
<path d="M451.455 730.926C451.455 752.164 434.238 769.381 413 769.381C391.762 769.381 374.545 752.164 374.545 730.926C374.545 709.688 391.762 692.471 413 692.471C434.238 692.471 451.455 709.688 451.455 730.926Z" fill="white"/>
<path fill-rule="evenodd" clip-rule="evenodd" d="M413 752.661C425.004 752.661 434.735 742.93 434.735 730.926C434.735 718.922 425.004 709.19 413 709.19C400.996 709.19 391.265 718.922 391.265 730.926C391.265 742.93 400.996 752.661 413 752.661ZM413 769.381C434.238 769.381 451.455 752.164 451.455 730.926C451.455 709.688 434.238 692.471 413 692.471C391.762 692.471 374.545 709.688 374.545 730.926C374.545 752.164 391.762 769.381 413 769.381Z" fill="#394597"/>
<path d="M451.455 531.963C451.455 553.201 434.238 570.418 413 570.418C391.762 570.418 374.545 553.201 374.545 531.963C374.545 510.725 391.762 493.508 413 493.508C434.238 493.508 451.455 510.725 451.455 531.963Z" fill="white"/>
<path fill-rule="evenodd" clip-rule="evenodd" d="M413 553.698C425.004 553.698 434.735 543.967 434.735 531.963C434.735 519.959 425.004 510.227 413 510.227C400.996 510.227 391.265 519.959 391.265 531.963C391.265 543.967 400.996 553.698 413 553.698ZM413 570.418C434.238 570.418 451.455 553.201 451.455 531.963C451.455 510.725 434.238 493.508 413 493.508C391.762 493.508 374.545 510.725 374.545 531.963C374.545 553.201 391.762 570.418 413 570.418Z" fill="#394597"/>
<path d="M451.455 287.857C451.455 309.095 434.238 326.312 413 326.312C391.762 326.312 374.545 309.095 374.545 287.857C374.545 266.619 391.762 249.402 413 249.402C434.238 249.402 451.455 266.619 451.455 287.857Z" fill="white"/>
<path fill-rule="evenodd" clip-rule="evenodd" d="M413 309.593C425.004 309.593 434.735 299.861 434.735 287.857C434.735 275.853 425.004 266.122 413 266.122C400.996 266.122 391.265 275.853 391.265 287.857C391.265 299.861 400.996 309.593 413 309.593ZM413 326.312C434.238 326.312 451.455 309.095 451.455 287.857C451.455 266.619 434.238 249.402 413 249.402C391.762 249.402 374.545 266.619 374.545 287.857C374.545 309.095 391.762 326.312 413 326.312Z" fill="#394597"/>
<path d="M326.527 504.24C308.134 514.859 284.615 508.557 273.996 490.164C263.377 471.771 269.679 448.253 288.072 437.634C306.464 427.015 329.983 433.316 340.602 451.709C351.221 470.102 344.919 493.621 326.527 504.24Z" fill="white"/>
<path fill-rule="evenodd" clip-rule="evenodd" d="M288.476 481.804C294.478 492.2 307.771 495.762 318.167 489.76C328.563 483.758 332.125 470.465 326.123 460.069C320.12 449.673 306.827 446.111 296.431 452.113C286.035 458.115 282.474 471.408 288.476 481.804ZM273.996 490.164C284.615 508.557 308.134 514.859 326.527 504.24C344.919 493.621 351.221 470.102 340.602 451.709C329.983 433.316 306.464 427.015 288.072 437.634C269.679 448.253 263.377 471.771 273.996 490.164Z" fill="#394597"/>
<path d="M537.928 382.187C519.536 392.806 496.017 386.504 485.398 368.111C474.779 349.718 481.081 326.2 499.473 315.581C517.866 304.962 541.385 311.263 552.004 329.656C562.623 348.049 556.321 371.568 537.928 382.187Z" fill="white"/>
<path fill-rule="evenodd" clip-rule="evenodd" d="M499.877 359.751C505.88 370.147 519.173 373.709 529.569 367.707C539.965 361.705 543.526 348.412 537.524 338.016C531.522 327.62 518.229 324.058 507.833 330.06C497.437 336.062 493.875 349.355 499.877 359.751ZM485.398 368.111C496.017 386.504 519.536 392.806 537.928 382.187C556.321 371.568 562.623 348.049 552.004 329.656C541.385 311.263 517.866 304.962 499.473 315.581C481.081 326.2 474.779 349.718 485.398 368.111Z" fill="#394597"/>
<path d="M537.928 437.634C556.321 448.253 562.623 471.771 552.004 490.164C541.385 508.557 517.866 514.859 499.473 504.24C481.081 493.621 474.779 470.102 485.398 451.709C496.017 433.316 519.536 427.015 537.928 437.634Z" fill="white"/>
<path fill-rule="evenodd" clip-rule="evenodd" d="M537.524 481.804C543.526 471.409 539.965 458.115 529.569 452.113C519.173 446.111 505.88 449.673 499.877 460.069C493.875 470.465 497.437 483.758 507.833 489.76C518.229 495.762 531.522 492.2 537.524 481.804ZM552.004 490.164C562.623 471.771 556.321 448.253 537.928 437.634C519.536 427.015 496.017 433.316 485.398 451.709C474.779 470.102 481.081 493.621 499.473 504.24C517.866 514.859 541.385 508.557 552.004 490.164Z" fill="#394597"/>
<path d="M326.527 315.581C344.919 326.2 351.221 349.719 340.602 368.111C329.983 386.504 306.464 392.806 288.072 382.187C269.679 371.568 263.377 348.049 273.996 329.656C284.615 311.264 308.134 304.962 326.527 315.581Z" fill="white"/>
<path fill-rule="evenodd" clip-rule="evenodd" d="M326.123 359.752C332.125 349.356 328.563 336.062 318.167 330.06C307.771 324.058 294.478 327.62 288.476 338.016C282.474 348.412 286.035 361.705 296.431 367.707C306.827 373.709 320.12 370.147 326.123 359.752ZM340.602 368.111C351.221 349.719 344.919 326.2 326.527 315.581C308.134 304.962 284.615 311.264 273.996 329.656C263.377 348.049 269.679 371.568 288.072 382.187C306.464 392.806 329.983 386.504 340.602 368.111Z" fill="#394597"/>
<g filter="url(#filter4_dii_1_2)">
<path d="M385.905 458.397C384.248 458.397 382.905 457.054 382.905 455.397V366.095C382.905 364.438 384.248 363.095 385.905 363.095H441.767C443.424 363.095 444.767 364.438 444.767 366.095V379.053C444.767 380.71 443.424 382.053 441.767 382.053H409.217C407.56 382.053 406.217 383.396 406.217 385.053V399.932C406.217 401.589 407.56 402.932 409.217 402.932H436.297C437.954 402.932 439.297 404.276 439.297 405.932V419.018C439.297 420.675 437.954 422.018 436.297 422.018H409.217C407.56 422.018 406.217 423.361 406.217 425.018V455.397C406.217 457.054 404.874 458.397 403.217 458.397H385.905Z" fill="white"/>
</g>
</g>
</g>
<defs>
<filter id="filter0_d_1_2" x="-22" y="-11" width="868" height="868" filterUnits="userSpaceOnUse" color-interpolation-filters="sRGB">
<feFlood flood-opacity="0" result="BackgroundImageFix"/>
<feColorMatrix in="SourceAlpha" type="matrix" values="0 0 0 0 0 0 0 0 0 0 0 0 0 0 0 0 0 0 127 0" result="hardAlpha"/>
<feOffset dy="11"/>
<feGaussianBlur stdDeviation="11"/>
<feColorMatrix type="matrix" values="0 0 0 0 0 0 0 0 0 0 0 0 0 0 0 0 0 0 0.28 0"/>
<feBlend mode="normal" in2="BackgroundImageFix" result="effect1_dropShadow_1_2"/>
<feBlend mode="normal" in="SourceGraphic" in2="effect1_dropShadow_1_2" result="shape"/>
</filter>
<filter id="filter1_dii_1_2" x="94" y="48.7831" width="638" height="725.598" filterUnits="userSpaceOnUse" color-interpolation-filters="sRGB">
<feFlood flood-opacity="0" result="BackgroundImageFix"/>
<feColorMatrix in="SourceAlpha" type="matrix" values="0 0 0 0 0 0 0 0 0 0 0 0 0 0 0 0 0 0 127 0" result="hardAlpha"/>
<feOffset dy="-2"/>
<feGaussianBlur stdDeviation="1.5"/>
<feColorMatrix type="matrix" values="0 0 0 0 0 0 0 0 0 0 0 0 0 0 0 0 0 0 0.59 0"/>
<feBlend mode="normal" in2="BackgroundImageFix" result="effect1_dropShadow_1_2"/>
<feBlend mode="normal" in="SourceGraphic" in2="effect1_dropShadow_1_2" result="shape"/>
<feColorMatrix in="SourceAlpha" type="matrix" values="0 0 0 0 0 0 0 0 0 0 0 0 0 0 0 0 0 0 127 0" result="hardAlpha"/>
<feOffset dy="5"/>
<feGaussianBlur stdDeviation="10.5"/>
<feComposite in2="hardAlpha" operator="arithmetic" k2="-1" k3="1"/>
<feColorMatrix type="matrix" values="0 0 0 0 0 0 0 0 0 0 0 0 0 0 0 0 0 0 0.23 0"/>
<feBlend mode="normal" in2="shape" result="effect2_innerShadow_1_2"/>
<feColorMatrix in="SourceAlpha" type="matrix" values="0 0 0 0 0 0 0 0 0 0 0 0 0 0 0 0 0 0 127 0" result="hardAlpha"/>
<feOffset dy="5"/>
<feGaussianBlur stdDeviation="2"/>
<feComposite in2="hardAlpha" operator="arithmetic" k2="-1" k3="1"/>
<feColorMatrix type="matrix" values="0 0 0 0 0 0 0 0 0 0 0 0 0 0 0 0 0 0 0.07 0"/>
<feBlend mode="normal" in2="effect2_innerShadow_1_2" result="effect3_innerShadow_1_2"/>
</filter>
<filter id="filter2_i_1_2" x="205.677" y="172.492" width="414.646" height="476.836" filterUnits="userSpaceOnUse" color-interpolation-filters="sRGB">
<feFlood flood-opacity="0" result="BackgroundImageFix"/>
<feBlend mode="normal" in="SourceGraphic" in2="BackgroundImageFix" result="shape"/>
<feColorMatrix in="SourceAlpha" type="matrix" values="0 0 0 0 0 0 0 0 0 0 0 0 0 0 0 0 0 0 127 0" result="hardAlpha"/>
<feOffset dy="3"/>
<feGaussianBlur stdDeviation="1"/>
<feComposite in2="hardAlpha" operator="arithmetic" k2="-1" k3="1"/>
<feColorMatrix type="matrix" values="0 0 0 0 0 0 0 0 0 0 0 0 0 0 0 0 0 0 0.1 0"/>
<feBlend mode="normal" in2="shape" result="effect1_innerShadow_1_2"/>
</filter>
<filter id="filter3_di_1_2" x="253.218" y="251.378" width="319.565" height="353.004" filterUnits="userSpaceOnUse" color-interpolation-filters="sRGB">
<feFlood flood-opacity="0" result="BackgroundImageFix"/>
<feColorMatrix in="SourceAlpha" type="matrix" values="0 0 0 0 0 0 0 0 0 0 0 0 0 0 0 0 0 0 127 0" result="hardAlpha"/>
<feOffset dy="17.9696"/>
<feGaussianBlur stdDeviation="20.5367"/>
<feColorMatrix type="matrix" values="0 0 0 0 0 0 0 0 0 0 0 0 0 0 0 0 0 0 0.48 0"/>
<feBlend mode="normal" in2="BackgroundImageFix" result="effect1_dropShadow_1_2"/>
<feBlend mode="normal" in="SourceGraphic" in2="effect1_dropShadow_1_2" result="shape"/>
<feColorMatrix in="SourceAlpha" type="matrix" values="0 0 0 0 0 0 0 0 0 0 0 0 0 0 0 0 0 0 127 0" result="hardAlpha"/>
<feOffset dy="-4"/>
<feGaussianBlur stdDeviation="1"/>
<feComposite in2="hardAlpha" operator="arithmetic" k2="-1" k3="1"/>
<feColorMatrix type="matrix" values="0 0 0 0 0 0 0 0 0 0 0 0 0 0 0 0 0 0 0.1 0"/>
<feBlend mode="normal" in2="shape" result="effect2_innerShadow_1_2"/>
</filter>
<filter id="filter4_dii_1_2" x="341.831" y="339.991" width="144.009" height="177.448" filterUnits="userSpaceOnUse" color-interpolation-filters="sRGB">
<feFlood flood-opacity="0" result="BackgroundImageFix"/>
<feColorMatrix in="SourceAlpha" type="matrix" values="0 0 0 0 0 0 0 0 0 0 0 0 0 0 0 0 0 0 127 0" result="hardAlpha"/>
<feOffset dy="17.9696"/>
<feGaussianBlur stdDeviation="20.5367"/>
<feColorMatrix type="matrix" values="0 0 0 0 0 0 0 0 0 0 0 0 0 0 0 0 0 0 0.48 0"/>
<feBlend mode="normal" in2="BackgroundImageFix" result="effect1_dropShadow_1_2"/>
<feBlend mode="normal" in="SourceGraphic" in2="effect1_dropShadow_1_2" result="shape"/>
<feColorMatrix in="SourceAlpha" type="matrix" values="0 0 0 0 0 0 0 0 0 0 0 0 0 0 0 0 0 0 127 0" result="hardAlpha"/>
<feOffset dy="4"/>
<feGaussianBlur stdDeviation="1"/>
<feComposite in2="hardAlpha" operator="arithmetic" k2="-1" k3="1"/>
<feColorMatrix type="matrix" values="0 0 0 0 1 0 0 0 0 1 0 0 0 0 1 0 0 0 1 0"/>
<feBlend mode="normal" in2="shape" result="effect2_innerShadow_1_2"/>
<feColorMatrix in="SourceAlpha" type="matrix" values="0 0 0 0 0 0 0 0 0 0 0 0 0 0 0 0 0 0 127 0" result="hardAlpha"/>
<feOffset dy="-4"/>
<feGaussianBlur stdDeviation="1"/>
<feComposite in2="hardAlpha" operator="arithmetic" k2="-1" k3="1"/>
<feColorMatrix type="matrix" values="0 0 0 0 0 0 0 0 0 0 0 0 0 0 0 0 0 0 0.1 0"/>
<feBlend mode="normal" in2="effect2_innerShadow_1_2" result="effect3_innerShadow_1_2"/>
</filter>
<linearGradient id="paint0_linear_1_2" x1="412" y1="0" x2="412" y2="824" gradientUnits="userSpaceOnUse">
<stop stop-opacity="0"/>
<stop offset="1" stop-opacity="0.2"/>
</linearGradient>
<clipPath id="clip0_1_2">
<rect width="826" height="826" fill="white"/>
</clipPath>
</defs>
</svg>
